<?xml version="1.0" encoding="UTF-8" standalone="no"?>
<!-- Created with Inkscape (http://www.inkscape.org/) -->

<svg
   width="210mm"
   height="297mm"
   viewBox="0 0 210 297"
   version="1.1"
   id="svg5"
   inkscape:version="1.1 (c68e22c387, 2021-05-23)"
   sodipodi:docname="logo playground.svg"
   xmlns:inkscape="http://www.inkscape.org/namespaces/inkscape"
   xmlns:sodipodi="http://sodipodi.sourceforge.net/DTD/sodipodi-0.dtd"
   xmlns="http://www.w3.org/2000/svg"
   xmlns:svg="http://www.w3.org/2000/svg">
  <sodipodi:namedview
     id="namedview7"
     pagecolor="#ffffff"
     bordercolor="#666666"
     borderopacity="1.0"
     inkscape:pageshadow="2"
     inkscape:pageopacity="0.0"
     inkscape:pagecheckerboard="0"
     inkscape:document-units="mm"
     showgrid="false"
     showguides="false"
     inkscape:zoom="0.30110831"
     inkscape:cx="554.61771"
     inkscape:cy="3131.7635"
     inkscape:window-width="2400"
     inkscape:window-height="1271"
     inkscape:window-x="-9"
     inkscape:window-y="-4"
     inkscape:window-maximized="1"
     inkscape:current-layer="layer1" />
  <defs
     id="defs2" />
  <g
     inkscape:label="Vrstva 1"
     inkscape:groupmode="layer"
     id="layer1">
    <rect
       style="fill:#1ae9b9;fill-opacity:1;stroke:#ffffff;stroke-width:13.8106;stroke-linecap:round;stroke-linejoin:round;stroke-miterlimit:4;stroke-dasharray:none;stroke-opacity:1;paint-order:stroke fill markers"
       id="rect11219"
       width="647.27734"
       height="464.45322"
       x="-170.01881"
       y="638.29187"
       rx="15.054235"
       ry="12.669641" />
    <rect
       style="fill:#868686;fill-opacity:1;stroke:none;stroke-width:4.99999;stroke-linecap:round;stroke-linejoin:round;stroke-miterlimit:4;stroke-dasharray:none;stroke-opacity:1;paint-order:stroke fill markers"
       id="rect9061"
       width="90"
       height="90"
       x="80.503708"
       y="475.75122"
       rx="0"
       ry="0" />
    <path
       id="rect3232"
       style="fill:#33b6b1;fill-opacity:1;stroke-width:2.64353"
       d="m 135.48427,475.75123 c 2.49443,0 2.50301,-7.8e-4 3.81754,1.30187 29.81206,29.54252 0,0 29.81206,29.54252 1.40492,1.39222 1.38983,1.40673 1.38983,3.91095 0,2.50422 -2.4299,5.24466 -5.18914,5.24466 h -29.83029 c -2.75924,0 -4.98057,-2.2348 -4.98057,-5.01076 v -29.97848 c 0,-2.77596 2.48615,-5.01076 4.98057,-5.01076 z"
       sodipodi:nodetypes="zsszssssz" />
    <path
       id="rect3232-8"
       style="fill:none;fill-opacity:1;stroke:#000000;stroke-width:5;stroke-miterlimit:4;stroke-dasharray:none;stroke-opacity:1"
       d="m 334.40515,693.76203 c 2.49442,0 2.503,-7.8e-4 3.81753,1.30187 29.81206,29.54252 0,0 29.81206,29.54252 1.40492,1.39222 1.38983,1.40673 1.38983,3.91095 0,2.50422 -2.4299,5.24466 -5.18914,5.24466 h -29.83028 c -2.75924,0 -4.98058,-2.2348 -4.98058,-5.01076 v -29.97848 c 0,-2.77596 2.48615,-5.01076 4.98058,-5.01076 z"
       sodipodi:nodetypes="zsszssssz" />
    <rect
       style="fill:#33b6b1;fill-opacity:1;stroke:none;stroke-width:10;stroke-linecap:round;stroke-linejoin:round;stroke-miterlimit:4;stroke-dasharray:none;stroke-opacity:1;paint-order:stroke fill markers"
       id="rect2117"
       width="40"
       height="40"
       x="130.50371"
       y="525.75122"
       rx="5"
       ry="5" />
    <path
       id="rect2117-5"
       style="fill:none;stroke:#000000;stroke-width:5;stroke-linecap:round;stroke-linejoin:round;stroke-miterlimit:4;stroke-dasharray:none;stroke-opacity:1;paint-order:stroke fill markers"
       d="m 334.42457,748.75464 h 30 c 2.77,0 5,2.23 5,5 v 30 c 0,2.77 -2.23,5 -5,5 h -30 c -2.77,0 -5,-2.23 -5,-5 v -30 c 0,-2.77 2.23,-5 5,-5 z" />
    <path
       id="rect2117-1"
       style="fill:#33b6b1;stroke-width:1.93073"
       d="m 85.39328,525.75123 c -2.32717,0 -4.71109,1.68167 -4.84493,3.71166 -1.12403,17.04841 19.19555,37.36824 36.24416,36.24366 2.02991,-0.1339 3.71119,-2.51773 3.71119,-4.84486 v -30.09453 c 0,-2.7787 -2.23674,-5.01593 -5.01548,-5.01593 z"
       sodipodi:nodetypes="saassss" />
    <path
       id="rect2117-1-8"
       style="fill:none;stroke:#000000;stroke-width:5;stroke-miterlimit:4;stroke-dasharray:none;stroke-opacity:1"
       d="m 279.31579,748.75464 c -2.32716,0 -4.71109,1.68167 -4.84493,3.71166 -1.12403,17.0484 19.19556,37.36823 36.24417,36.24365 2.0299,-0.1339 3.71118,-2.51773 3.71118,-4.84486 v -30.09452 c 0,-2.7787 -2.23674,-5.01593 -5.01547,-5.01593 z"
       sodipodi:nodetypes="saassss" />
    <circle
       style="fill:#33b6b1;stroke-width:2.11593"
       id="path2221"
       cx="100.5037"
       cy="495.75122"
       r="20" />
    <path
       id="rect3232-0"
       style="fill:#000000;fill-opacity:1;stroke-width:2.64353"
       d="m -41.899207,805.23998 c 2.49443,0 2.50301,-7.8e-4 3.81754,1.30187 29.8120497,29.54252 0,0 29.8120497,29.54252 1.40492,1.39222 1.38983,1.40673 1.38983,3.91095 0,2.50422 -2.4299,5.24466 -5.1891397,5.24466 h -29.83028 c -2.75924,0 -4.98057,-2.2348 -4.98057,-5.01076 v -29.97848 c 0,-2.77596 2.48615,-5.01076 4.98057,-5.01076 z"
       sodipodi:nodetypes="zsszssssz" />
    <rect
       style="fill:#000000;fill-opacity:1;stroke:none;stroke-width:10;stroke-linecap:round;stroke-linejoin:round;stroke-miterlimit:4;stroke-dasharray:none;stroke-opacity:1;paint-order:stroke fill markers"
       id="rect2117-55"
       width="40"
       height="40"
       x="-46.879772"
       y="855.23999"
       rx="5"
       ry="5" />
    <path
       id="rect2117-1-4"
       style="fill:#000000;fill-opacity:1;stroke-width:1.93073"
       d="m -91.990197,855.23998 c -2.32717,0 -4.71109,1.68167 -4.84493,3.71166 -1.12403,17.04841 19.19555,37.36824 36.24416,36.24366 2.02991,-0.1339 3.71119,-2.51773 3.71119,-4.84486 v -30.09453 c 0,-2.7787 -2.23674,-5.01593 -5.01548,-5.01593 z"
       sodipodi:nodetypes="saassss" />
    <circle
       style="fill:#000000;fill-opacity:1;stroke-width:2.11593"
       id="path2221-0"
       cx="-76.879784"
       cy="825.23999"
       r="20" />
    <circle
       style="fill:none;stroke:#000000;stroke-width:5;stroke-miterlimit:4;stroke-dasharray:none;stroke-opacity:1"
       id="path2221-4"
       cx="294.42456"
       cy="713.75464"
       r="20" />
    <path
       id="rect3232-8-1"
       style="fill:none;fill-opacity:1;stroke:#ffffff;stroke-width:8;stroke-miterlimit:4;stroke-dasharray:none;stroke-opacity:1"
       d="m 164.49126,781.99769 c 2.49442,0 2.503,-7.8e-4 3.81753,1.30187 29.81206,29.54252 0,0 29.81206,29.54252 1.40492,1.39222 1.38983,1.40673 1.38983,3.91095 0,2.50422 -2.4299,5.24466 -5.18914,5.24466 h -29.83028 c -2.75924,0 -4.98058,-2.2348 -4.98058,-5.01076 v -29.97848 c 0,-2.77596 2.48615,-5.01076 4.98058,-5.01076 z"
       sodipodi:nodetypes="zsszssssz" />
    <path
       id="rect2117-5-7"
       style="fill:none;stroke:#ffffff;stroke-width:8;stroke-linecap:round;stroke-linejoin:round;stroke-miterlimit:4;stroke-dasharray:none;stroke-opacity:1;paint-order:stroke fill markers"
       d="m 164.51068,836.9903 h 30 c 2.77,0 5,2.23 5,5 v 30 c 0,2.77 -2.23,5 -5,5 h -30 c -2.77,0 -5,-2.23 -5,-5 v -30 c 0,-2.77 2.23,-5 5,-5 z" />
    <path
       id="rect2117-1-8-7"
       style="fill:none;stroke:#ffffff;stroke-width:8;stroke-miterlimit:4;stroke-dasharray:none;stroke-opacity:1"
       d="m 109.4019,836.9903 c -2.32716,0 -4.71109,1.68167 -4.84493,3.71166 -1.12403,17.0484 19.19556,37.36823 36.24417,36.24365 2.0299,-0.1339 3.71118,-2.51773 3.71118,-4.84486 v -30.09452 c 0,-2.7787 -2.23674,-5.01593 -5.01547,-5.01593 z"
       sodipodi:nodetypes="saassss" />
    <circle
       style="fill:none;stroke:#ffffff;stroke-width:8;stroke-miterlimit:4;stroke-dasharray:none;stroke-opacity:1"
       id="path2221-4-2"
       cx="124.51067"
       cy="801.99036"
       r="20" />
    <path
       id="rect3232-8-4"
       style="fill:none;fill-opacity:1;stroke:#ffffff;stroke-width:5;stroke-miterlimit:4;stroke-dasharray:none;stroke-opacity:1"
       d="m 183.9329,965.78807 c 2.49442,0 2.503,-8e-4 3.81753,1.3018 29.81206,29.5426 0,0 29.81206,29.5426 1.40492,1.3922 1.38983,1.4067 1.38983,3.91093 0,2.5042 -2.4299,5.2447 -5.18914,5.2447 H 183.9329 c -2.75924,0 -4.98058,-2.2348 -4.98058,-5.0108 v -29.97853 c 0,-2.7759 2.48615,-5.0107 4.98058,-5.0107 z"
       sodipodi:nodetypes="zsszssssz" />
    <path
       id="rect2117-5-3"
       style="fill:none;stroke:#ffffff;stroke-width:5;stroke-linecap:round;stroke-linejoin:round;stroke-miterlimit:4;stroke-dasharray:none;stroke-opacity:1;paint-order:stroke fill markers"
       d="m 183.95232,1020.7807 h 30 c 2.77,0 5,2.23 5,5 v 30 c 0,2.77 -2.23,5 -5,5 h -30 c -2.77,0 -5,-2.23 -5,-5 v -30 c 0,-2.77 2.23,-5 5,-5 z" />
    <path
       id="rect2117-1-8-2"
       style="fill:none;stroke:#ffffff;stroke-width:5;stroke-miterlimit:4;stroke-dasharray:none;stroke-opacity:1"
       d="m 128.84354,1020.7807 c -2.32716,0 -4.71109,1.6816 -4.84493,3.7116 -1.12403,17.0484 19.19555,37.3683 36.24417,36.2437 2.0299,-0.1339 3.71118,-2.5177 3.71118,-4.8449 v -30.0945 c 0,-2.7787 -2.23674,-5.0159 -5.01547,-5.0159 z"
       sodipodi:nodetypes="saassss" />
    <circle
       style="fill:none;stroke:#ffffff;stroke-width:5;stroke-miterlimit:4;stroke-dasharray:none;stroke-opacity:1"
       id="path2221-4-1"
       cx="143.95233"
       cy="985.78064"
       r="20" />
  </g>
</svg>
