<?xml version="1.0" encoding="UTF-8" standalone="no"?>
<!-- Created with Inkscape (http://www.inkscape.org/) -->

<svg
   width="210mm"
   height="297mm"
   viewBox="0 0 210 297"
   version="1.1"
   id="svg5"
   inkscape:version="1.1 (c68e22c387, 2021-05-23)"
   sodipodi:docname="logo prototype.svg"
   xmlns:inkscape="http://www.inkscape.org/namespaces/inkscape"
   xmlns:sodipodi="http://sodipodi.sourceforge.net/DTD/sodipodi-0.dtd"
   xmlns:xlink="http://www.w3.org/1999/xlink"
   xmlns="http://www.w3.org/2000/svg"
   xmlns:svg="http://www.w3.org/2000/svg">
  <sodipodi:namedview
     id="namedview7"
     pagecolor="#ffffff"
     bordercolor="#666666"
     borderopacity="1.0"
     inkscape:pageshadow="2"
     inkscape:pageopacity="0.0"
     inkscape:pagecheckerboard="0"
     inkscape:document-units="mm"
     showgrid="false"
     inkscape:zoom="0.8516629"
     inkscape:cx="219.57044"
     inkscape:cy="508.41712"
     inkscape:window-width="2400"
     inkscape:window-height="1271"
     inkscape:window-x="-9"
     inkscape:window-y="-4"
     inkscape:window-maximized="1"
     inkscape:current-layer="layer1" />
  <defs
     id="defs2">
    <linearGradient
       id="linearGradient5051"
       inkscape:swatch="gradient">
      <stop
         style="stop-color:#33b6b1;stop-opacity:1"
         offset="0"
         id="stop5047" />
      <stop
         style="stop-color:#07b37d;stop-opacity:1"
         offset="1"
         id="stop5049" />
    </linearGradient>
    <linearGradient
       inkscape:collect="always"
       xlink:href="#linearGradient5051"
       id="linearGradient5055"
       gradientUnits="userSpaceOnUse"
       x1="65.46302"
       y1="101.92899"
       x2="172.22485"
       y2="213.08432"
       gradientTransform="matrix(1.08354,0,0,1.08354,-8.7717036,-12.405699)" />
  </defs>
  <g
     inkscape:label="Vrstva 1"
     inkscape:groupmode="layer"
     id="layer1">
    <rect
       style="opacity:1;fill:url(#linearGradient5055);fill-opacity:1;fill-rule:nonzero;stroke-width:2.86686"
       id="rect1268"
       width="159.5578"
       height="159.22118"
       x="25.2211"
       y="68.889412"
       ry="27.602827" />
    <path
       id="path3982"
       style="fill:#ffffff;stroke-width:2.6828"
       d="m 121.07811,196.97221 c 0,3.80025 -7.19845,3.86568 -16.07818,3.86568 -8.879702,0 -16.078136,-0.0654 -16.078135,-3.86568 0,-1.83574 7.198433,-8.52568 16.078135,-8.52568 8.87973,0 16.07818,6.73562 16.07818,8.52568 z m -0.043,-8.2855 c 7.08979,-2.42755 15.0393,-6.2465 21.25615,-10.21144 2.62009,-1.67104 7.99444,-5.50807 8.4065,-6.00187 0.0715,-0.0857 0.70513,-0.64636 1.40796,-1.2458 l 1.27784,-1.08988 -0.17755,1.6024 c -0.2837,2.56049 -1.27285,4.43596 -3.61312,6.85078 -1.72724,1.78225 -2.54538,2.37961 -4.96981,3.6286 -6.01743,3.09998 -15.31611,5.74331 -24.36857,6.92721 -0.59002,0.0771 -0.31517,-0.0848 0.7806,-0.46 z m -33.355918,0.18065 c -0.214664,-0.0462 -1.327013,-0.23064 -2.471888,-0.40994 -6.136779,-0.96114 -15.85544,-4.03599 -20.33628,-6.43412 -1.887623,-1.01027 -4.579847,-3.15571 -5.632292,-4.48843 -1.087136,-1.37663 -2.246004,-4.13902 -2.428913,-5.78979 l -0.17412,-1.57143 2.053856,1.73122 c 7.552659,6.36619 17.643189,12.109 27.948843,15.90645 2.267894,0.83568 2.976798,1.18961 2.341788,1.16923 -0.500883,-0.0161 -1.08633,-0.067 -1.300994,-0.11319 z m 4.163181,-4.06434 c -15.024226,-4.7247 -28.732161,-12.93368 -38.255331,-22.90912 -4.073552,-4.26701 -6.418895,-8.10033 -7.68848,-12.56632 -0.67264,-2.36614 -0.68191,-7.71539 -0.01696,-9.79787 1.743792,-5.46131 5.987576,-8.95267 11.59439,-9.5387 1.766409,-0.18462 1.818647,-0.17205 1.935292,0.46554 1.216015,6.64688 3.191978,11.65231 7.804948,19.77123 5.778805,10.1708 11.870037,18.53201 19.59686,26.8999 3.268876,3.5401 7.461409,7.7251 7.909555,7.89538 0.359947,0.13677 0.293122,0.60118 -0.08311,0.57767 -0.178887,-0.0115 -1.437598,-0.37015 -2.797138,-0.79769 z m 6.162087,-2.88397 C 87.472929,171.99157 78.201313,160.16127 71.229531,147.7551 c -7.005132,-12.46554 -9.014114,-20.68906 -7.108757,-29.09883 0.778463,-3.43596 3.267311,-7.53569 5.822174,-9.59054 2.205012,-1.77345 5.854117,-3.12403 8.440787,-3.12403 2.209165,0 5.730538,0.84784 5.730538,1.37976 0,0.11485 -0.167926,0.63511 -0.373168,1.15615 -0.559388,1.42009 -1.107861,4.16321 -1.470125,7.35267 -0.479688,4.22329 0.09693,9.79146 1.693045,16.34899 1.857413,7.63108 9.674355,32.00991 15.023811,46.855 1.002773,2.78276 1.770334,5.11565 1.705704,5.18421 -0.0646,0.0685 -1.274717,-0.96617 -2.68907,-2.2994 z m 18.14328,2.42507 c 1.73312,-1.60978 6.3848,-6.43432 9.00399,-9.33854 8.90108,-9.86972 18.0733,-23.92304 22.66291,-34.72321 0.83838,-1.97279 2.28348,-6.73176 2.63812,-8.68756 0.35701,-1.96907 0.32183,-1.9539 3.33067,-1.43605 3.38572,0.58276 6.43891,2.57654 8.50556,5.55435 1.75542,2.52934 2.33085,4.67166 2.32248,8.64651 -0.008,3.57089 -0.32651,5.03223 -1.89901,8.70001 -1.52899,3.56626 -5.37329,8.46535 -9.25238,11.79102 -1.01836,0.87307 -1.91012,1.65275 -1.98167,1.73263 -1.09658,1.22403 -8.2019,6.38199 -11.83905,8.5943 -5.17524,3.14787 -11.99953,6.37302 -17.69352,8.3619 -2.98425,1.04239 -6.42848,2.08154 -6.89916,2.08154 -0.15052,0 0.34497,-0.57459 1.10106,-1.2769 z m -6.63875,-0.45315 c 0,-0.10456 0.87199,-2.99952 1.93776,-6.43319 1.93798,-6.2438 4.18647,-13.79144 4.5731,-15.35092 0.11288,-0.4554 0.74983,-2.75306 1.41539,-5.10593 0.66557,-2.35287 1.38489,-4.96103 1.59855,-5.79591 0.21366,-0.8349 1.18778,-4.62294 2.16473,-8.41788 2.44165,-9.48464 2.7957,-11.14818 3.55374,-16.69776 0.61477,-4.50089 0.39975,-10.73486 -0.49505,-14.35179 -0.35676,-1.44208 -0.72175,-2.81452 -0.81107,-3.04984 -0.2984,-0.7861 3.49031,-2.30006 6.55842,-2.62074 4.31996,-0.45153 8.31079,1.11827 11.53708,4.5381 5.39006,5.71348 6.48655,14.49522 3.08541,24.71125 -2.80526,8.42624 -10.78328,21.72251 -19.43938,32.39785 -5.01792,6.18852 -15.67868,17.18792 -15.67868,16.17676 z m -4.60949,-0.90894 c -0.48777,-0.83709 -7.467964,-21.40997 -10.688044,-31.50102 -6.513704,-20.41257 -7.517898,-24.73672 -7.531066,-32.42952 -0.0061,-3.53604 0.103646,-5.18394 0.445278,-6.68902 1.804642,-7.95041 6.008206,-13.355972 12.147412,-15.620937 2.25207,-0.830855 6.36522,-0.758041 8.65969,0.153314 5.24178,2.081995 9.05265,6.288743 11.10767,12.261513 2.57743,7.49107 2.30977,15.02346 -1.01849,28.66285 -2.41417,9.89337 -6.70786,25.40119 -10.27788,37.12147 -0.67047,2.20106 -1.50696,4.96447 -1.85889,6.14091 -0.64665,2.16159 -0.73467,2.3313 -0.98569,1.90044 z" />
  </g>
</svg>
